<?xml version="1.0" encoding="iso-8859-1"?>
<!-- Generator: Adobe Illustrator 19.0.0, SVG Export Plug-In . SVG Version: 6.00 Build 0)  -->
<svg version="1.1" id="Capa_1" xmlns="http://www.w3.org/2000/svg" xmlns:xlink="http://www.w3.org/1999/xlink" x="0px" y="0px"
	 viewBox="0 0 512 512" style="enable-background:new 0 0 512 512;" xml:space="preserve">
<path style="fill:#48BD80;" d="M472.26,392.73l-33.94-60.07l-0.83,0.47H74.51l-0.83-0.47l-33.94,60.07
	c-4.61,7.91-3.46,18.15,3.2,24.45C98.49,469.75,173.48,502,256,502s157.51-32.24,213.06-84.82
	C475.72,410.88,476.87,400.64,472.26,392.73z"/>
<path style="fill:#F25A78;" d="M438.32,332.66l-0.83,0.47C395.37,387.18,329.68,422,256,422s-139.37-34.82-181.49-88.87l-0.83-0.47
	L256,10L438.32,332.66z"/>
<path d="M248.93,454.93c-3.91,3.9-3.91,10.24,0,14.14c3.9,3.91,10.24,3.91,14.14,0c3.91-3.9,3.91-10.24,0-14.14
	C259.17,451.02,252.83,451.02,248.93,454.93z"/>
<path d="M447.026,327.741L447.026,327.741L264.706,5.081C262.932,1.941,259.606,0,256,0c-3.606,0-6.932,1.941-8.706,5.081
	L31.065,387.755c-6.935,11.963-4.836,27.382,5.001,36.688C95.73,480.905,173.836,512,256,512
	c82.174,0,160.282-31.095,219.932-87.555c9.839-9.307,11.937-24.727,5.002-36.689L447.026,327.741z M256,30.327l170.096,301.027
	C384.029,382.676,322.358,412,256,412s-128.028-29.323-170.095-80.644L256,30.327z M462.186,409.917
	C406.264,462.849,333.039,492,256,492c-77.028,0-150.253-29.151-206.188-82.084c-3.18-3.008-3.782-8.118-1.432-12.15
	c0.022-0.039,0.045-0.078,0.067-0.116l26.975-47.74C119.872,400.605,184.493,432,256,432c71.441,0,136.085-31.345,180.579-82.092
	l26.974,47.741c0.022,0.039,0.044,0.078,0.067,0.116C465.97,401.798,465.368,406.907,462.186,409.917z"/>
<path d="M362.657,429.21c-21.681,9.755-44.644,16.473-68.251,19.967c-5.463,0.809-9.236,5.893-8.428,11.356
	c0.735,4.967,5.004,8.537,9.879,8.537c0.487,0,0.98-0.036,1.477-0.109c25.429-3.764,50.167-11.001,73.528-21.512
	c5.037-2.266,7.283-8.186,5.017-13.223S367.693,426.943,362.657,429.21z"/>
<path d="M256,352c5.523,0,10-4.477,10-10v-20c0-5.523-4.477-10-10-10s-10,4.477-10,10v20C246,347.523,250.477,352,256,352z"/>
<path d="M356,352c5.523,0,10-4.477,10-10v-20c0-5.523-4.477-10-10-10s-10,4.477-10,10v20C346,347.523,350.477,352,356,352z"/>
<path d="M156,352c5.523,0,10-4.477,10-10v-20c0-5.523-4.477-10-10-10s-10,4.477-10,10v20C146,347.523,150.477,352,156,352z"/>
<path d="M206,269c5.523,0,10-4.477,10-10v-20c0-5.523-4.477-10-10-10s-10,4.477-10,10v20C196,264.523,200.477,269,206,269z"/>
<path d="M256,186c5.523,0,10-4.477,10-10v-20c0-5.523-4.477-10-10-10s-10,4.477-10,10v20C246,181.523,250.477,186,256,186z"/>
<path d="M306,269c5.523,0,10-4.477,10-10v-20c0-5.523-4.477-10-10-10s-10,4.477-10,10v20C296,264.523,300.477,269,306,269z"/>
<g>
</g>
<g>
</g>
<g>
</g>
<g>
</g>
<g>
</g>
<g>
</g>
<g>
</g>
<g>
</g>
<g>
</g>
<g>
</g>
<g>
</g>
<g>
</g>
<g>
</g>
<g>
</g>
<g>
</g>
</svg>
